<svg width="14" height="8" viewBox="0 0 14 8" fill="none" xmlns="http://www.w3.org/2000/svg">
<path fill-rule="evenodd" clip-rule="evenodd" d="M7.70698 7.707C7.51945 7.89447 7.26514 7.99979 6.99998 7.99979C6.73481 7.99979 6.4805 7.89447 6.29298 7.707L0.635977 2.05C0.540467 1.95775 0.464284 1.84741 0.411875 1.7254C0.359466 1.6034 0.33188 1.47218 0.330726 1.3394C0.329572 1.20662 0.354874 1.07494 0.405155 0.952046C0.455436 0.82915 0.529689 0.717497 0.623582 0.623604C0.717475 0.529712 0.829126 0.455459 0.952023 0.405178C1.07492 0.354897 1.2066 0.329595 1.33938 0.330749C1.47216 0.331903 1.60338 0.359489 1.72538 0.411898C1.84739 0.464307 1.95773 0.540489 2.04998 0.635999L6.99998 5.586L11.95 0.635999C12.1386 0.453841 12.3912 0.353047 12.6534 0.355325C12.9156 0.357604 13.1664 0.462772 13.3518 0.648181C13.5372 0.833589 13.6424 1.0844 13.6447 1.3466C13.6469 1.6088 13.5461 1.8614 13.364 2.05L7.70698 7.707Z" fill="#303030"/>
</svg>
